<!-- @formatter:off -->
<svg xmlns="http://www.w3.org/2000/svg" xmlns:xlink="http://www.w3.org/1999/xlink">
    <defs>
        <svg id="check-circle" xmlns="http://www.w3.org/2000/svg" viewBox="0 0 20 20" fill="currentColor">
            <path fill-rule="evenodd" d="M10 18a8 8 0 100-16 8 8 0 000 16zm3.707-9.293a1 1 0 00-1.414-1.414L9 10.586 7.707 9.293a1 1 0 00-1.414 1.414l2 2a1 1 0 001.414 0l4-4z" clip-rule="evenodd"/>
        </svg>
        <svg id="thumb-up" xmlns="http://www.w3.org/2000/svg" viewBox="0 0 20 20" fill="currentColor">
            <path d="M2 10.5a1.5 1.5 0 113 0v6a1.5 1.5 0 01-3 0v-6zM6 10.333v5.43a2 2 0 001.106 1.79l.05.025A4 4 0 008.943 18h5.416a2 2 0 001.962-1.608l1.2-6A2 2 0 0015.56 8H12V4a2 2 0 00-2-2 1 1 0 00-1 1v.667a4 4 0 01-.8 2.4L6.8 7.933a4 4 0 00-.8 2.4z"/>
        </svg>
        <svg id="thumb-down" xmlns="http://www.w3.org/2000/svg" viewBox="0 0 20 20" fill="currentColor">
            <path d="M18 9.5a1.5 1.5 0 11-3 0v-6a1.5 1.5 0 013 0v6zM14 9.667v-5.43a2 2 0 00-1.105-1.79l-.05-.025A4 4 0 0011.055 2H5.64a2 2 0 00-1.962 1.608l-1.2 6A2 2 0 004.44 12H8v4a2 2 0 002 2 1 1 0 001-1v-.667a4 4 0 01.8-2.4l1.4-1.866a4 4 0 00.8-2.4z"/>
        </svg>
        <svg id="arrow-left" xmlns="http://www.w3.org/2000/svg" viewBox="0 0 20 20" fill="currentColor">
            <path fill-rule="evenodd" d="M9.707 16.707a1 1 0 01-1.414 0l-6-6a1 1 0 010-1.414l6-6a1 1 0 011.414 1.414L5.414 9H17a1 1 0 110 2H5.414l4.293 4.293a1 1 0 010 1.414z" clip-rule="evenodd"/>
        </svg>
        <svg id="information-circle" xmlns="http://www.w3.org/2000/svg" viewBox="0 0 20 20" fill="currentColor">
            <path fill-rule="evenodd" d="M18 10a8 8 0 11-16 0 8 8 0 0116 0zm-7-4a1 1 0 11-2 0 1 1 0 012 0zM9 9a1 1 0 000 2v3a1 1 0 001 1h1a1 1 0 100-2v-3a1 1 0 00-1-1H9z" clip-rule="evenodd"/>
        </svg>
      
        <svg id="x-circle" xmlns="http://www.w3.org/2000/svg" viewBox="0 0 20 20" fill="currentColor">
            <path fill-rule="evenodd" d="M10 18a8 8 0 100-16 8 8 0 000 16zM8.707 7.293a1 1 0 00-1.414 1.414L8.586 10l-1.293 1.293a1 1 0 101.414 1.414L10 11.414l1.293 1.293a1 1 0 001.414-1.414L11.414 10l1.293-1.293a1 1 0 00-1.414-1.414L10 8.586 8.707 7.293z" clip-rule="evenodd"/>
        </svg>
        <svg id="exclamation" xmlns="http://www.w3.org/2000/svg" viewBox="0 0 20 20" fill="currentColor">
            <path fill-rule="evenodd" d="M8.257 3.099c.765-1.36 2.722-1.36 3.486 0l5.58 9.92c.75 1.334-.213 2.98-1.742 2.98H4.42c-1.53 0-2.493-1.646-1.743-2.98l5.58-9.92zM11 13a1 1 0 11-2 0 1 1 0 012 0zm-1-8a1 1 0 00-1 1v3a1 1 0 002 0V6a1 1 0 00-1-1z" clip-rule="evenodd"/>
        </svg>
        <svg id="x" xmlns="http://www.w3.org/2000/svg" viewBox="0 0 20 20" fill="currentColor">
            <path fill-rule="evenodd" d="M4.293 4.293a1 1 0 011.414 0L10 8.586l4.293-4.293a1 1 0 111.414 1.414L11.414 10l4.293 4.293a1 1 0 01-1.414 1.414L10 11.414l-4.293 4.293a1 1 0 01-1.414-1.414L8.586 10 4.293 5.707a1 1 0 010-1.414z" clip-rule="evenodd"/>
        </svg>
        <svg id="user" xmlns="http://www.w3.org/2000/svg" viewBox="0 0 20 20" fill="currentColor">
            <path fill-rule="evenodd" d="M10 9a3 3 0 100-6 3 3 0 000 6zm-7 9a7 7 0 1114 0H3z" clip-rule="evenodd"/>
        </svg>
        <svg id="chevron-right" xmlns="http://www.w3.org/2000/svg" viewBox="0 0 20 20" fill="currentColor">
            <path fill-rule="evenodd" d="M7.293 14.707a1 1 0 010-1.414L10.586 10 7.293 6.707a1 1 0 011.414-1.414l4 4a1 1 0 010 1.414l-4 4a1 1 0 01-1.414 0z" clip-rule="evenodd"/>
        </svg>
        <svg id="location_on" xmlns="http://www.w3.org/2000/svg" height="24px" viewBox="0 0 24 24" width="24px" fill="currentColor">
            <path d="M0 0h24v24H0V0z" fill-rule="evenodd"/>
            <path d="M12 2C8.13 2 5 5.13 5 9c0 5.25 7 13 7 13s7-7.75 7-13c0-3.87-3.13-7-7-7zM7 9c0-2.76 2.24-5 5-5s5 2.24 5 5c0 2.88-2.88 7.19-5 9.88C9.92 16.21 7 11.85 7 9z"/>
            <circle cx="12" cy="9" r="2.5"/>
        </svg>
        <svg id="copy" xmlns="http://www.w3.org/2000/svg" height="24" viewBox="0 0 24 24" width="24">
            <path d="M0 0h24v24H0z" fill="none"/>
            <path d="M16 1H4c-1.1 0-2 .9-2 2v14h2V3h12V1zm3 4H8c-1.1 0-2 .9-2 2v14c0 1.1.9 2 2 2h11c1.1 0 2-.9 2-2V7c0-1.1-.9-2-2-2zm0 16H8V7h11v14z"/>
        </svg>
        <svg id="dots-vertical" xmlns="http://www.w3.org/2000/svg" viewBox="0 0 20 20" fill="currentColor">
            <path d="M10 6a2 2 0 110-4 2 2 0 010 4zM10 12a2 2 0 110-4 2 2 0 010 4zM10 18a2 2 0 110-4 2 2 0 010 4z"/>
        </svg>
        <svg id="trash" xmlns="http://www.w3.org/2000/svg" viewBox="0 0 20 20" fill="currentColor">
            <path fill-rule="evenodd" d="M9 2a1 1 0 00-.894.553L7.382 4H4a1 1 0 000 2v10a2 2 0 002 2h8a2 2 0 002-2V6a1 1 0 100-2h-3.382l-.724-1.447A1 1 0 0011 2H9zM7 8a1 1 0 012 0v6a1 1 0 11-2 0V8zm5-1a1 1 0 00-1 1v6a1 1 0 102 0V8a1 1 0 00-1-1z" clip-rule="evenodd"/>
        </svg>
        <svg id="eye-off" xmlns="http://www.w3.org/2000/svg" viewBox="0 0 20 20" fill="currentColor">
            <path fill-rule="evenodd" d="M3.707 2.293a1 1 0 00-1.414 1.414l14 14a1 1 0 001.414-1.414l-1.473-1.473A10.014 10.014 0 0019.542 10C18.268 5.943 14.478 3 10 3a9.958 9.958 0 00-4.512 1.074l-1.78-1.781zm4.261 4.26l1.514 1.515a2.003 2.003 0 012.45 2.45l1.514 1.514a4 4 0 00-5.478-5.478z" clip-rule="evenodd"/>
            <path d="M12.454 16.697L9.75 13.992a4 4 0 01-3.742-3.741L2.335 6.578A9.98 9.98 0 00.458 10c1.274 4.057 5.065 7 9.542 7 .847 0 1.669-.105 2.454-.303z"/>
        </svg>
        <svg id="eye" xmlns="http://www.w3.org/2000/svg" viewBox="0 0 20 20" fill="currentColor">
            <path d="M10 12a2 2 0 100-4 2 2 0 000 4z"/>
            <path fill-rule="evenodd" d="M.458 10C1.732 5.943 5.522 3 10 3s8.268 2.943 9.542 7c-1.274 4.057-5.064 7-9.542 7S1.732 14.057.458 10zM14 10a4 4 0 11-8 0 4 4 0 018 0z" clip-rule="evenodd"/>
        </svg>
        <svg id="credit-card" xmlns="http://www.w3.org/2000/svg" viewBox="0 0 20 20" fill="currentColor">
            <path d="M4 4a2 2 0 00-2 2v1h16V6a2 2 0 00-2-2H4z"/>
            <path fill-rule="evenodd" d="M18 9H2v5a2 2 0 002 2h12a2 2 0 002-2V9zM4 13a1 1 0 011-1h1a1 1 0 110 2H5a1 1 0 01-1-1zm5-1a1 1 0 100 2h1a1 1 0 100-2H9z" clip-rule="evenodd"/>
        </svg>
        <svg id="calendar" xmlns="http://www.w3.org/2000/svg" viewBox="0 0 20 20" fill="currentColor">
            <path fill-rule="evenodd" d="M6 2a1 1 0 00-1 1v1H4a2 2 0 00-2 2v10a2 2 0 002 2h12a2 2 0 002-2V6a2 2 0 00-2-2h-1V3a1 1 0 10-2 0v1H7V3a1 1 0 00-1-1zm0 5a1 1 0 000 2h8a1 1 0 100-2H6z" clip-rule="evenodd"/>
        </svg>
        <svg id="location-marker" xmlns="http://www.w3.org/2000/svg" viewBox="0 0 20 20" fill="currentColor">
            <path fill-rule="evenodd" d="M5.05 4.05a7 7 0 119.9 9.9L10 18.9l-4.95-4.95a7 7 0 010-9.9zM10 11a2 2 0 100-4 2 2 0 000 4z" clip-rule="evenodd"/>
        </svg>
        <svg id="heart" xmlns="http://www.w3.org/2000/svg" viewBox="0 0 20 20" fill="currentColor">
            <path fill-rule="evenodd" d="M3.172 5.172a4 4 0 015.656 0L10 6.343l1.172-1.171a4 4 0 115.656 5.656L10 17.657l-6.828-6.829a4 4 0 010-5.656z" clip-rule="evenodd"/>
        </svg>
        <svg id="save" xmlns="http://www.w3.org/2000/svg" viewBox="0 0 20 20" fill="currentColor">
            <path d="M7.707 10.293a1 1 0 10-1.414 1.414l3 3a1 1 0 001.414 0l3-3a1 1 0 00-1.414-1.414L11 11.586V6h5a2 2 0 012 2v7a2 2 0 01-2 2H4a2 2 0 01-2-2V8a2 2 0 012-2h5v5.586l-1.293-1.293zM9 4a1 1 0 012 0v2H9V4z"/>
        </svg>
        <svg id="pencil" xmlns="http://www.w3.org/2000/svg" viewBox="0 0 20 20" fill="currentColor">
            <path d="M13.586 3.586a2 2 0 112.828 2.828l-.793.793-2.828-2.828.793-.793zM11.379 5.793L3 14.172V17h2.828l8.38-8.379-2.83-2.828z"/>
        </svg>
        <svg id="shield-check" xmlns="http://www.w3.org/2000/svg" viewBox="0 0 20 20" fill="currentColor">
            <path fill-rule="evenodd" d="M2.166 4.999A11.954 11.954 0 0010 1.944 11.954 11.954 0 0017.834 5c.11.65.166 1.32.166 2.001 0 5.225-3.34 9.67-8 11.317C5.34 16.67 2 12.225 2 7c0-.682.057-1.35.166-2.001zm11.541 3.708a1 1 0 00-1.414-1.414L9 10.586 7.707 9.293a1 1 0 00-1.414 1.414l2 2a1 1 0 001.414 0l4-4z" clip-rule="evenodd"/>
        </svg>
        <svg id="mail-open" xmlns="http://www.w3.org/2000/svg" viewBox="0 0 20 20" fill="currentColor">
            <path fill-rule="evenodd" d="M2.94 6.412A2 2 0 002 8.108V16a2 2 0 002 2h12a2 2 0 002-2V8.108a2 2 0 00-.94-1.696l-6-3.75a2 2 0 00-2.12 0l-6 3.75zm2.615 2.423a1 1 0 10-1.11 1.664l5 3.333a1 1 0 001.11 0l5-3.333a1 1 0 00-1.11-1.664L10 11.798 5.555 8.835z" clip-rule="evenodd"/>
        </svg>
        <svg id="star" xmlns="http://www.w3.org/2000/svg" viewBox="0 0 20 20" fill="currentColor">
            <path d="M9.049 2.927c.3-.921 1.603-.921 1.902 0l1.07 3.292a1 1 0 00.95.69h3.462c.969 0 1.371 1.24.588 1.81l-2.8 2.034a1 1 0 00-.364 1.118l1.07 3.292c.3.921-.755 1.688-1.54 1.118l-2.8-2.034a1 1 0 00-1.175 0l-2.8 2.034c-.784.57-1.838-.197-1.539-1.118l1.07-3.292a1 1 0 00-.364-1.118L2.98 8.72c-.783-.57-.38-1.81.588-1.81h3.461a1 1 0 00.951-.69l1.07-3.292z"/>
        </svg>
        <svg id="plus-circle" xmlns="http://www.w3.org/2000/svg" viewBox="0 0 20 20" fill="currentColor">
            <path fill-rule="evenodd" d="M10 18a8 8 0 100-16 8 8 0 000 16zm1-11a1 1 0 10-2 0v2H7a1 1 0 100 2h2v2a1 1 0 102 0v-2h2a1 1 0 100-2h-2V7z" clip-rule="evenodd"/>
        </svg>
        <svg id="search" xmlns="http://www.w3.org/2000/svg" viewBox="0 0 20 20" fill="currentColor">
            <path fill-rule="evenodd" d="M8 4a4 4 0 100 8 4 4 0 000-8zM2 8a6 6 0 1110.89 3.476l4.817 4.817a1 1 0 01-1.414 1.414l-4.816-4.816A6 6 0 012 8z" clip-rule="evenodd"/>
        </svg>
        <svg id="volume-off" xmlns="http://www.w3.org/2000/svg" viewBox="0 0 20 20" fill="currentColor">
            <path fill-rule="evenodd" d="M9.383 3.076A1 1 0 0110 4v12a1 1 0 01-1.707.707L4.586 13H2a1 1 0 01-1-1V8a1 1 0 011-1h2.586l3.707-3.707a1 1 0 011.09-.217zM12.293 7.293a1 1 0 011.414 0L15 8.586l1.293-1.293a1 1 0 111.414 1.414L16.414 10l1.293 1.293a1 1 0 01-1.414 1.414L15 11.414l-1.293 1.293a1 1 0 01-1.414-1.414L13.586 10l-1.293-1.293a1 1 0 010-1.414z" clip-rule="evenodd"/>
        </svg>
    </defs>
</svg>