<svg version="1.1" id="Layer_1" xmlns="http://www.w3.org/2000/svg" xmlns:xlink="http://www.w3.org/1999/xlink" x="0px" y="0px"
	 width="100%" viewBox="0 0 512 512" enable-background="new 0 0 512 512" xml:space="preserve">
<path fill="#C3C3C3" opacity="1.000000" stroke="none" 
	d="
M513.000000,41.000000 
	C513.000000,184.689987 513.000000,328.379974 512.716553,472.203247 
	C511.961365,472.961945 511.285736,473.518494 511.047821,474.222870 
	C505.589569,490.380798 488.809784,502.029633 471.738281,502.024475 
	C328.621765,501.981232 185.505249,502.012756 42.388767,501.930756 
	C38.528587,501.928528 34.518330,501.391693 30.836124,500.262604 
	C17.438284,496.154358 8.012172,487.570251 2.939287,474.360321 
	C2.704463,473.748810 1.664806,473.446381 0.999998,473.000000 
	C1.000000,329.309998 1.000000,185.620026 1.283441,41.796768 
	C2.038606,41.038086 2.714194,40.481529 2.952141,39.777138 
	C8.410435,23.618959 25.190582,11.970434 42.261707,11.975599 
	C185.378204,12.018905 328.494720,11.987332 471.611206,12.069328 
	C475.471405,12.071540 479.481628,12.608356 483.163879,13.737429 
	C496.561798,17.845617 505.987762,26.429838 511.060730,39.639706 
	C511.295563,40.251194 512.335205,40.553627 513.000000,41.000000 
M247.850021,225.434311 
	C243.644974,245.384598 239.974899,265.466431 235.108353,285.254028 
	C227.973389,314.265320 220.050629,343.084351 212.325485,371.948334 
	C208.712891,385.446320 204.819595,398.966095 205.967850,413.068359 
	C207.185806,428.026855 213.175339,434.792969 226.030396,432.986450 
	C229.907623,432.441620 234.038177,431.359955 237.323227,429.338623 
	C253.011673,419.685516 268.539124,409.761353 283.931366,399.640808 
	C290.017303,395.639252 295.717804,391.018158 301.378204,386.414093 
	C305.223389,383.286469 302.733887,379.537323 301.168091,376.519287 
	C299.351440,373.017700 296.920868,375.700226 294.937836,376.898315 
	C293.095795,378.011169 291.494415,379.529053 289.634399,380.604462 
	C280.598511,385.828491 271.839539,391.705109 262.344421,395.909546 
	C253.864441,399.664490 248.933716,395.460876 249.017334,386.151855 
	C249.041229,383.490692 248.861832,380.757477 249.387955,378.182434 
	C252.772064,361.619141 255.852325,344.973114 259.917755,328.573730 
	C270.182190,287.168335 281.073761,245.918427 291.334503,204.512146 
	C293.544556,195.593674 295.696136,186.386032 293.171631,176.998856 
	C291.480743,170.711334 287.126068,167.479401 280.955566,169.161636 
	C273.310974,171.245758 265.624237,173.548737 258.412781,176.777863 
	C237.191833,186.280151 219.106766,200.898926 199.861969,213.620392 
	C198.912109,214.248291 198.139359,215.192673 197.404510,216.088425 
	C194.808670,219.252579 196.261002,222.414688 198.491623,224.546051 
	C199.612244,225.616821 202.891647,225.537109 204.569504,224.709702 
	C209.770340,222.144989 214.624954,218.889145 219.700653,216.056946 
	C225.924164,212.584290 232.038132,208.806580 238.566452,206.020828 
	C244.558990,203.463745 248.834473,206.724213 248.792236,213.160080 
	C248.767319,216.956116 248.198914,220.748581 247.850021,225.434311 
M280.280945,138.904938 
	C284.355988,137.659378 289.008148,137.278061 292.401642,135.011902 
	C304.243805,127.103653 307.975586,115.013382 308.166077,101.396416 
	C308.391907,85.256073 296.758911,77.938896 281.260162,81.669975 
	C268.564606,84.726242 262.370087,94.373978 259.238373,105.824089 
	C254.568436,122.898109 260.527588,137.627899 280.280945,138.904938 
z"/>
<path fill="#000000" opacity="1.000000" stroke="none" 
	d="
M513.000000,40.531342 
	C512.335205,40.553627 511.295563,40.251194 511.060730,39.639706 
	C505.987762,26.429838 496.561798,17.845617 483.163879,13.737429 
	C479.481628,12.608356 475.471405,12.071540 471.611206,12.069328 
	C328.494720,11.987332 185.378204,12.018905 42.261707,11.975599 
	C25.190582,11.970434 8.410435,23.618959 2.952141,39.777138 
	C2.714194,40.481529 2.038606,41.038086 1.283441,41.331753 
	C1.000000,27.676521 1.000000,14.353041 1.000000,1.045841 
	C171.666672,1.045841 342.333344,1.045841 513.000000,1.045841 
	C513.000000,14.082015 513.000000,27.072350 513.000000,40.531342 
z"/>
<path fill="#000000" opacity="1.000000" stroke="none" 
	d="
M0.999998,473.468658 
	C1.664806,473.446381 2.704463,473.748810 2.939287,474.360321 
	C8.012172,487.570251 17.438284,496.154358 30.836124,500.262604 
	C34.518330,501.391693 38.528587,501.928528 42.388767,501.930756 
	C185.505249,502.012756 328.621765,501.981232 471.738281,502.024475 
	C488.809784,502.029633 505.589569,490.380798 511.047821,474.222870 
	C511.285736,473.518494 511.961365,472.961945 512.716553,472.668274 
	C513.000000,486.323456 513.000000,499.646942 513.000000,512.954346 
	C342.333313,512.954346 171.666656,512.954346 1.000000,512.954346 
	C1.000000,499.918182 1.000000,486.927765 0.999998,473.468658 
z"/>
<path fill="#FFFFFF" opacity="1.000000" stroke="none" 
	d="
M247.862473,224.988480 
	C248.198914,220.748581 248.767319,216.956116 248.792236,213.160080 
	C248.834473,206.724213 244.558990,203.463745 238.566452,206.020828 
	C232.038132,208.806580 225.924164,212.584290 219.700653,216.056946 
	C214.624954,218.889145 209.770340,222.144989 204.569504,224.709702 
	C202.891647,225.537109 199.612244,225.616821 198.491623,224.546051 
	C196.261002,222.414688 194.808670,219.252579 197.404510,216.088425 
	C198.139359,215.192673 198.912109,214.248291 199.861969,213.620392 
	C219.106766,200.898926 237.191833,186.280151 258.412781,176.777863 
	C265.624237,173.548737 273.310974,171.245758 280.955566,169.161636 
	C287.126068,167.479401 291.480743,170.711334 293.171631,176.998856 
	C295.696136,186.386032 293.544556,195.593674 291.334503,204.512146 
	C281.073761,245.918427 270.182190,287.168335 259.917755,328.573730 
	C255.852325,344.973114 252.772064,361.619141 249.387955,378.182434 
	C248.861832,380.757477 249.041229,383.490692 249.017334,386.151855 
	C248.933716,395.460876 253.864441,399.664490 262.344421,395.909546 
	C271.839539,391.705109 280.598511,385.828491 289.634399,380.604462 
	C291.494415,379.529053 293.095795,378.011169 294.937836,376.898315 
	C296.920868,375.700226 299.351440,373.017700 301.168091,376.519287 
	C302.733887,379.537323 305.223389,383.286469 301.378204,386.414093 
	C295.717804,391.018158 290.017303,395.639252 283.931366,399.640808 
	C268.539124,409.761353 253.011673,419.685516 237.323227,429.338623 
	C234.038177,431.359955 229.907623,432.441620 226.030396,432.986450 
	C213.175339,434.792969 207.185806,428.026855 205.967850,413.068359 
	C204.819595,398.966095 208.712891,385.446320 212.325485,371.948334 
	C220.050629,343.084351 227.973389,314.265320 235.108353,285.254028 
	C239.974899,265.466431 243.644974,245.384598 247.862473,224.988480 
z"/>
<path fill="#FFFFFF" opacity="1.000000" stroke="none" 
	d="
M279.864563,138.968689 
	C260.527588,137.627899 254.568436,122.898109 259.238373,105.824089 
	C262.370087,94.373978 268.564606,84.726242 281.260162,81.669975 
	C296.758911,77.938896 308.391907,85.256073 308.166077,101.396416 
	C307.975586,115.013382 304.243805,127.103653 292.401642,135.011902 
	C289.008148,137.278061 284.355988,137.659378 279.864563,138.968689 
z"/>
</svg>